<svg width="344.58" height="298.403" version="1.0" xmlns="http://www.w3.org/2000/svg"><path fill="none" d="M-2.415 0h344.58v298.403H-2.415z"/><path d="m225.8 92.304-76.751 132.93c29.122-8.978 60.452-10.309 90.821-3.146l25.939 6.123-24.404 103.48-25.976-6.123c-19.954-4.707-40.754-.043-56.841 12.674a66.9 66.9 0 0 0-18.731 23.32l-24.01-11.617a93.6 93.6 0 0 1 26.172-32.616 93.49 93.49 0 0 1 79.549-17.712l12.165-51.574c-43.577-10.273-89.504-.043-124.61 27.744-35.106 27.785-55.611 70.142-55.611 114.91l344.58.01z" fill="#60a5fa" style="paint-order:markers fill stroke" transform="translate(-53.512 -92.304)"/></svg>
