<svg viewBox="0 0 84.754 84.754" fill="none" class="hidden dark:block h-7 sm:h-8" width="84.754" height="84.754" xmlns="http://www.w3.org/2000/svg"><rect style="fill:#000;stroke-width:.289;stroke-linejoin:bevel;paint-order:markers fill stroke" width="84.754" height="84.754" rx="10.2" ry="10.2"/><g fill="#fff"><path fill-rule="evenodd" clip-rule="evenodd" d="M82.053 104.39a1.65 1.65 0 0 0 .624-2.279 1.723 1.723 0 0 0-2.327-.61l-22.22 12.573-22.14-12.526a1.723 1.723 0 0 0-2.325.611 1.65 1.65 0 0 0 .623 2.277l22.927 12.973a1.72 1.72 0 0 0 1.323.158q.314-.05.59-.205z" style="stroke-width:1.72346" transform="translate(-15.796 -47.681)"/><path fill-rule="evenodd" clip-rule="evenodd" d="M84.342 91.091a1.76 1.76 0 0 0-.882-1.813L59.223 75.632a1.9 1.9 0 0 0-.616-.214 1.83 1.83 0 0 0-1.4.166l-24.236 13.65a1.75 1.75 0 0 0-.86 1.925c-.076.606.162 1.24.869 1.642l24.235 13.712a1.83 1.83 0 0 0 1.4.167c.22-.034.432-.107.623-.215L83.477 92.75c.712-.403.948-1.046.865-1.658m-5.003-.072L58.173 79.103l-21.154 11.91 21.164 11.974Z" style="stroke-width:1.72346" transform="translate(-15.796 -47.681)"/><path fill-rule="evenodd" clip-rule="evenodd" d="M84.709 80.768a1.83 1.83 0 0 0 .691-2.532 1.913 1.913 0 0 0-2.582-.677L58.138 91.52 33.556 77.614a1.913 1.913 0 0 0-2.582.677 1.827 1.827 0 0 0 .692 2.53l25.46 14.405a1.9 1.9 0 0 0 1.47.174q.348-.052.655-.224z" style="stroke-width:1.72346" transform="translate(-15.796 -47.681)"/><path d="m35.483 79.165 22.68-13.891L80.84 79.165l-22.68 12.96Z" style="stroke-width:1.72346" transform="translate(-15.796 -47.681)"/><path fill-rule="evenodd" clip-rule="evenodd" d="M84.68 77.114a1.834 1.834 0 0 1 .701 2.527 1.913 1.913 0 0 1-2.583.679L58.116 66.424 33.522 80.27a1.913 1.913 0 0 1-2.581-.68 1.83 1.83 0 0 1 .701-2.528l25.46-14.333a1.93 1.93 0 0 1 1.47-.173q.344.052.647.224z" style="stroke-width:1.72346" transform="translate(-15.796 -47.681)"/></g></svg>
