<svg xmlns="http://www.w3.org/2000/svg" width="64" height="64"><path d="M16.912 36.796H.025l.01.247.029.476.012.203.046.55.011.123.066.608.006.06.086.653q.292 2.032.874 3.998l.006.017.201.652.012.036.186.553.049.14.173.477.082.216.154.4.122.297.13.309.17.376.1.229.21.45.07.143.254.512.04.078.308.585.066.115 14.47-8.732a11.5 11.5 0 0 1-1.055-3.771zM.822 44.544l.005.016.545-.172z" fill="#93d500"/><path d="M21.063 44.553 9.122 56.489l.184.17.51.453.406.343.11.092.464.374.06.047.51.392.02.014 2.226 1.505.08.048.438.259.268.153.255.143.465.251.065.035 1.316.638 6.426-15.61a11.4 11.4 0 0 1-1.869-1.245z" fill="#4d5a31"/><path d="m19.825 43.369-.372-.438-.308-.398-.33-.467-.31-.482-14.44 8.7.743 1.168.06.088.003.005.776 1.094.018.023.017.023.35.457.422.522.09.11.345.406.152.173.3.343.169.184.077.083.229.24.091.094.4.409L20.22 43.793l-.39-.417z" fill="#6ba43a"/><path d="m35.615 44.547-.398.308.03.05 8.686 14.418 1.188-.818a29 29 0 0 0 2.438-2.015L35.662 44.594z" fill="#4d5a31"/><g fill="#93d500"><path d="m42.835 60.01.02-.011-.001-.001zm-.009.006"/><path d="m42.854 59.993.114-.057-.002-.004-.112.067zm-.025.02.006-.003zm-.003.003-.02-.036zm.009-.006.02-.01zm-.011.006-.006.003zm0 0 .002-.001zm.005-.003-.003.002.008-.006zm.025-.013.113-.064zm.113-.064-.002-.004zm-.153.085h.002zm.005-.001-.003.001z"/><path d="m42.67 59.442-8.402-13.941-.5.278-.511.257a11.5 11.5 0 0 1-4.932 1.116 11.5 11.5 0 0 1-3.281-.479l-.54-.19-.54-.19-6.413 15.577.046.018.05.018.013.006 1.231.471a28.6 28.6 0 0 0 5.782 1.384l.23.031.7.076.112.01.56.047.19.011.49.029.301.011.39.014.696.008a28.6 28.6 0 0 0 4.704-.392l.079-.011.493-.09.286-.054.289-.06.48-.106.087-.02a28.5 28.5 0 0 0 6.798-2.535l.418-.229.847-.478-.014-.04.021.036.028-.016.111-.066zM21.07 26.77l.398-.308-.03-.05L12.753 12l-1.191.82a29 29 0 0 0-2.436 2.012l11.897 11.892z"/></g><path d="m8.302 15.618-.79.825a28 28 0 0 0-2.407 2.983L5 19.574l-.242.357-.246.375-.089.137a28.3 28.3 0 0 0-4.4 14.071l-.015.572-.01.57h16.849l.027-.57.032-.572a11.43 11.43 0 0 1 2.54-6.136c.115-.146.256-.284.384-.425s.247-.288.383-.424zm34.763-4.183-.07-.041-.447-.266-.261-.149-.263-.146-.457-.247-.072-.037a30 30 0 0 0-3.038-1.372l-.08-.03-.686-.248a28.5 28.5 0 0 0-5.677-1.347l-.237-.032-.237-.027-.457-.05-.128-.01-.545-.046-.685-.042-.248-.01v16.89c.866.09 1.725.274 2.558.557L44.47 12.359a28 28 0 0 0-1.408-.923z" fill="#4d5a31"/><path d="m14.016 11.873-.295-.49zm-.303-.491.001.002zm14.059-4.054-.572.011a29 29 0 0 0-3.561.368l-.078.013-.494.09-.286.053-.29.06-.48.106-.087.02a28.6 28.6 0 0 0-6.798 2.535l-1.412.796.002.003 8.696 14.439.5-.279a11 11 0 0 1 .511-.257 11.4 11.4 0 0 1 3.772-1.057l.57-.046.572-.02V7.316c-.19 0-.38.007-.57.011z" fill="#6ba43a"/><path d="m56.65 34.265-.027-.455-.015-.227-.044-.533-.011-.138-.063-.596-.006-.048-.003-.023-.085-.642-.003-.02a28 28 0 0 0-.871-3.984l-.008-.025-.187-.607-.026-.08-.183-.546-.051-.147-.172-.47-.085-.223-.152-.387-.124-.305-.126-.301-.168-.383-.097-.216-.213-.455-.067-.138-.256-.518-.037-.072-.297-.57-.011-.02a29 29 0 0 0-1.613-2.617L39.214 31.956a11.7 11.7 0 0 1 .556 2.558h16.89z" fill="#4d5a31"/><path d="m39.836 35.658-.027.57-.031.572a11.4 11.4 0 0 1-2.54 6.137c-.115.146-.256.283-.385.424s-.246.288-.382.424l11.912 11.913c.136-.135.263-.275.395-.413l.394-.413a29 29 0 0 0 2.413-2.992l.085-.122.262-.385.225-.345.115-.169a28.27 28.27 0 0 0 4.39-14.06l.016-.57.01-.572z" fill="#6ba43a"/><path d="M61.688 2.312a7.89 7.89 0 0 0-11.162 0c-2.46 2.458-2.95 6.134-1.486 9.086L31.848 28.59c-2.952-1.464-6.628-.973-9.087 1.485a7.896 7.896 0 0 0 0 11.163 7.896 7.896 0 0 0 11.164 0c2.458-2.459 2.949-6.135 1.485-9.087L52.602 14.96c2.953 1.464 6.628.973 9.086-1.486a7.89 7.89 0 0 0 0-11.161z" fill="#424143"/></svg>
