<svg version="1.0" id="Layer_1" x="0" y="0" viewBox="0 0 726.017 219.814" xml:space="preserve" width="726.017" height="219.814" xmlns="http://www.w3.org/2000/svg"><style type="text/css" id="style2">.st0{fill:#123a50}</style><path class="st0" d="M89.417.748c6-2.2 12.7.6 15.4 6.5 25.2 53.5 50.2 106.9 75.2 160.5 3.1 6.6-.8 15.3-7.9 17.1-38.3 11.4-76.7 22.8-115.1 34.2-4.6 1.7-9.8.5-13.4-2.9-2.1-2.6-4-5.4-5.7-8.3-11.9-18.5-23.8-37.1-35.7-55.7-2.8-4.1-3-9.5-.3-13.7 26.9-43.9 53.9-87.8 80.9-131.7 1.6-2.4 3.6-5 6.6-6m5.3 29.2c-11.7 56.1-23.3 112.2-34.9 168.4-1.4 3.5 2.8 6.6 6 4.9 32.3-9.6 64.7-19.1 97-28.9 2.5-.5 4-3 3.5-5.4-.1-.5-.3-.9-.5-1.3-21.5-46.7-43.7-93.1-65.2-139.8-2.1-1-5.6-.8-5.9 2.1" id="path4"/><path class="st0" d="M392.317 170.548h22.7v-83.4h-22.7zm-1-104.9c0-7.4 4.1-11.1 12.4-11.1s12.4 3.7 12.4 11.1c0 3.5-1 6.3-3.1 8.2q-3.15 2.85-9.3 3c-8.2-.1-12.3-3.8-12.4-11.2m312 66.2-8.8.3c-6.6.2-11.5 1.4-14.8 3.6-3.2 2.2-4.8 5.5-4.8 10 0 6.4 3.7 9.6 11 9.6q7.95 0 12.6-4.5c3.2-3 4.7-7.1 4.7-12.1zm6.7 38.7-4.4-11.3h-.6c-3.8 4.8-7.8 8.2-11.8 10s-9.3 2.8-15.8 2.8q-12 0-18.9-6.9t-6.9-19.5c0-8.8 3.1-15.4 9.3-19.6s15.5-6.5 28-7l14.5-.5v-3.6c0-8.4-4.3-12.7-13-12.7-6.7 0-14.5 2-23.5 6l-7.5-15.4c9.9-5.1 20.8-7.7 31.9-7.5 11.2 0 19.8 2.4 25.7 7.3q9 7.35 9 22.2v55.6h-16zm-124.8 0h-22.7v-48.7q0-9-3-13.5c-2-3-5.2-4.5-9.5-4.5-5.8 0-10 2.1-12.7 6.4-2.6 4.3-4 11.3-4 21.1v39.2h-22.8v-83.4h17.5l3 10.7h1.3c2.3-3.9 5.7-7 9.7-9 4.5-2.2 9.5-3.3 14.5-3.2 12.5 0 20.9 4.1 25.3 12.2h2c2.3-3.9 5.8-7.1 9.9-9 4.6-2.2 9.6-3.3 14.7-3.2 9.4 0 16.6 2.4 21.4 7.3s7.3 12.6 7.3 23.3v54.3h-22.8v-48.7q0-9-3-13.5c-2-3-5.2-4.5-9.5-4.5-5.6 0-9.7 2-12.5 6s-4.1 10.3-4.1 18.9zm-99-5.2c5.9-4.5 8.9-11 8.9-19.5.1-3.7-.6-7.3-2.1-10.7-1.6-3.1-3.9-5.8-6.7-7.9-3-2.3-7.8-4.7-14.3-7.4-7.3-2.9-12.1-5.1-14.2-6.6-2.2-1.5-3.2-3.3-3.2-5.3 0-3.6 3.4-5.4 10.1-5.4 3.8 0 7.5.6 11.1 1.7s7.5 2.6 11.7 4.4l6.9-16.4c-9.2-4.3-19.2-6.5-29.3-6.6-10.5 0-18.7 2-24.4 6.1s-8.6 9.8-8.6 17.2c-.1 3.8.6 7.5 2.1 10.9 1.5 3.1 3.8 5.8 6.6 7.9q4.5 3.45 14.1 7.5c4.5 1.9 8 3.6 10.7 5 2.1 1 4 2.3 5.7 3.8 1.1 1.2 1.7 2.7 1.6 4.4 0 4.8-4.1 7.2-12.4 7.2-4.7-.1-9.4-.8-14-2-4.9-1.2-9.7-2.9-14.3-5v18.8q5.85 2.4 12 3.6c5.1.9 10.3 1.3 15.5 1.2 11.7-.2 20.6-2.5 26.5-6.9m-106-79c-2.5-.5-5.1-.7-7.7-.7-5.1 0-10 1.5-14.2 4.3-4.4 2.8-8 6.7-10.5 11.3h-1.1l-3.4-14h-17.2v83.3h22.7v-42.4c0-6.7 2-11.9 6.1-15.7 4.1-3.7 9.7-5.6 17-5.6 2.3 0 4.5.2 6.7.7zm-121.1 26.5h7.6c7.1 0 12.4-1.4 16-4.2 3.5-2.8 5.3-6.9 5.3-12.3s-1.5-9.4-4.4-12-7.6-3.9-13.9-3.9h-10.5v32.4zm52.2-17.3c0 11.7-3.7 20.7-11 26.9s-17.8 9.3-31.3 9.3h-9.9v38.8h-23.1v-109h34.8c13.2 0 23.3 2.8 30.2 8.5s10.3 14.2 10.3 25.5" id="path6"/></svg>
