<svg width="73.668" height="77.906" viewBox="0 0 73.668 77.906" fill="none" xmlns="http://www.w3.org/2000/svg"><path fill-rule="evenodd" clip-rule="evenodd" d="M12.577 43.368c2.881-1.664 2.886-7.05.01-12.03-2.875-4.98-7.54-7.669-10.423-6.005s-2.886 7.05-.01 12.03c2.875 4.98 7.542 7.668 10.423 6.005m.017 10.663c2.876 4.98 2.87 10.366-.01 12.03-2.882 1.663-7.548-1.025-10.424-6.005s-2.87-10.366.01-12.03c2.882-1.663 7.55 1.025 10.424 6.005M32.23 65.383c2.876 4.98 2.871 10.366-.01 12.03-2.882 1.664-7.548-1.025-10.424-6.005s-2.87-10.366.011-12.03 7.548 1.025 10.423 6.005m-.006-22.693c2.875 4.98 2.87 10.366-.01 12.03-2.882 1.663-7.549-1.025-10.424-6.005s-2.87-10.366.01-12.03c2.882-1.663 7.55 1.025 10.424 6.005" fill="#f26e7e" style="stroke-width:.736675"/><path fill-rule="evenodd" clip-rule="evenodd" d="M71.503 37.375c2.875-4.98 2.87-10.366-.01-12.03-2.882-1.663-7.549 1.025-10.424 6.006-2.876 4.98-2.87 10.366.01 12.03 2.882 1.663 7.548-1.026 10.424-6.006m0 10.658c2.882 1.664 2.887 7.05.011 12.03s-7.542 7.669-10.423 6.005c-2.88-1.664-2.886-7.05-.01-12.03 2.874-4.98 7.541-7.668 10.422-6.005M51.874 59.367c2.88 1.663 2.885 7.049.01 12.03-2.875 4.979-7.542 7.668-10.424 6.004-2.88-1.663-2.886-7.049-.01-12.03 2.875-4.98 7.542-7.668 10.423-6.004m-.012-22.688c2.881 1.663 2.886 7.049.01 12.03-2.875 4.98-7.54 7.668-10.423 6.004-2.88-1.663-2.886-7.049-.01-12.03 2.875-4.98 7.542-7.668 10.423-6.004" fill="#8a3391" style="stroke-width:.736675"/><path fill-rule="evenodd" clip-rule="evenodd" d="M47.237 6.024c0 3.327-4.66 6.024-10.412 6.024-5.75 0-10.413-2.697-10.413-6.024S31.074 0 36.825 0c5.75 0 10.412 2.697 10.412 6.024m-19.63 11.322c0 3.327-4.663 6.024-10.413 6.024S6.781 20.673 6.781 17.346s4.662-6.025 10.413-6.025c5.75 0 10.412 2.698 10.412 6.025M56.48 23.37c5.751 0 10.413-2.697 10.413-6.024s-4.662-6.025-10.413-6.025c-5.75 0-10.412 2.698-10.412 6.025S50.73 23.37 56.48 23.37m-9.244 5.323c0 3.327-4.66 6.024-10.412 6.024-5.75 0-10.413-2.697-10.413-6.024s4.662-6.024 10.413-6.024c5.75 0 10.412 2.697 10.412 6.024" fill="#f7bf2a" style="stroke-width:.736675"/></svg>
