<svg width="100" height="105.753" viewBox="0 0 100 105.753" fill="none" xmlns="http://www.w3.org/2000/svg"><path fill-rule="evenodd" clip-rule="evenodd" d="M25.743 57.292c2.881-1.664 2.886-7.05.01-12.03-2.875-4.98-7.541-7.669-10.423-6.005s-2.886 7.05-.01 12.03c2.875 4.98 7.542 7.668 10.423 6.005m.017 10.663c2.876 4.98 2.87 10.366-.01 12.03-2.882 1.663-7.548-1.025-10.424-6.005s-2.87-10.366.01-12.03c2.882-1.663 7.549 1.025 10.424 6.005m19.635 11.352c2.876 4.98 2.871 10.366-.01 12.03-2.882 1.664-7.548-1.025-10.424-6.005s-2.87-10.366.011-12.03 7.548 1.025 10.423 6.005m-.006-22.693c2.875 4.98 2.87 10.366-.01 12.03-2.882 1.663-7.549-1.025-10.424-6.005s-2.87-10.366.01-12.03c2.882-1.663 7.549 1.025 10.424 6.005" fill="#f26e7e" style="stroke-width:.736675"/><path fill-rule="evenodd" clip-rule="evenodd" d="M84.669 51.299c2.875-4.98 2.87-10.366-.01-12.03-2.882-1.663-7.549 1.025-10.424 6.006-2.876 4.98-2.87 10.366.01 12.03 2.882 1.663 7.548-1.026 10.424-6.006m0 10.658c2.882 1.664 2.887 7.05.011 12.03s-7.542 7.669-10.423 6.005-2.886-7.05-.011-12.03 7.542-7.668 10.423-6.005M65.04 73.291c2.88 1.663 2.885 7.049.01 12.03-2.875 4.979-7.542 7.668-10.424 6.004-2.88-1.663-2.886-7.049-.01-12.03 2.875-4.98 7.542-7.668 10.423-6.004m-.012-22.688c2.881 1.663 2.886 7.049.01 12.03-2.875 4.98-7.541 7.668-10.423 6.004-2.88-1.663-2.886-7.049-.01-12.03 2.875-4.98 7.542-7.668 10.423-6.004" fill="#8a3391" style="stroke-width:.736675"/><path fill-rule="evenodd" clip-rule="evenodd" d="M60.403 19.948c0 3.327-4.661 6.024-10.412 6.024s-10.413-2.697-10.413-6.024 4.662-6.024 10.413-6.024c5.75 0 10.412 2.697 10.412 6.024M40.773 31.27c0 3.327-4.663 6.024-10.413 6.024-5.751 0-10.413-2.697-10.413-6.024s4.662-6.025 10.413-6.025c5.75 0 10.412 2.698 10.412 6.025m28.874 6.024c5.751 0 10.413-2.697 10.413-6.024s-4.662-6.025-10.413-6.025c-5.75 0-10.412 2.698-10.412 6.025s4.662 6.024 10.412 6.024m-9.244 5.323c0 3.327-4.661 6.024-10.412 6.024s-10.413-2.697-10.413-6.024 4.662-6.024 10.413-6.024c5.75 0 10.412 2.697 10.412 6.024" fill="#f7bf2a" style="stroke-width:.736675"/></svg>
