<svg width="26.106" height="30.666" viewBox="0 0 26.106 30.666" fill="none" xmlns="http://www.w3.org/2000/svg"><path d="M12.185 21.83h3.957a1.79 1.79 0 0 0 1.575-1.689v-5.678c0-.753-.614-1.363-1.37-1.363s-1.37.61-1.37 1.363v3.605a1.027 1.027 0 0 1-1.024 1.018h-1.786a1.37 1.37 0 0 0-1.371 1.365v.019a1.376 1.376 0 0 0 1.39 1.36m-2.372-4.163a1.445 1.445 0 0 1-1.448-1.441v-5.678a1.88 1.88 0 0 1 1.649-1.768h3.966a1.467 1.467 0 0 1 1.468 1.437 1.44 1.44 0 0 1-.418 1.031A1.46 1.46 0 0 1 14 11.68h-1.796a.94.94 0 0 0-.945.94v3.605c0 .794-.646 1.44-1.445 1.44z" fill="#fff" style="fill:#4d0094;fill-opacity:1;stroke-width:.77892"/><path d="M13.98 8.862h-3.956a1.79 1.79 0 0 0-1.575 1.688v5.679a1.36 1.36 0 0 0 .665 1.234 1.38 1.38 0 0 0 1.408 0 1.36 1.36 0 0 0 .665-1.234V12.62c-.001-.27.106-.53.299-.72a1.02 1.02 0 0 1 .724-.296H14a1.37 1.37 0 0 0 1.37-1.361v-.02a1.39 1.39 0 0 0-1.39-1.362" fill="#fff" style="fill:#4d0094;fill-opacity:1;stroke-width:.77892"/><path d="M14.605 6.3a5.72 5.72 0 0 1 4.045 1.667 5.66 5.66 0 0 1 1.666 4.027v10.923a1.78 1.78 0 0 1-1.512 1.45H11.5a5.73 5.73 0 0 1-4.04-1.662 5.66 5.66 0 0 1-1.67-4.017V8.066a1.777 1.777 0 0 1 1.757-1.779Zm.025-2.91H7.438c-2.515.005-4.55 2.033-4.552 4.532v10.82a8.5 8.5 0 0 0 2.516 6.039 8.6 8.6 0 0 0 6.078 2.495h7.604a4.515 4.515 0 0 0 4.136-4.006V11.91a8.5 8.5 0 0 0-2.52-6.03 8.6 8.6 0 0 0-6.07-2.49" fill="#fff" style="fill:#4d0094;fill-opacity:1;stroke-width:.77892"/></svg>
