<svg width="20.334" height="23.886" viewBox="0 0 20.334 23.886" fill="none" xmlns="http://www.w3.org/2000/svg"><path d="M9.299 18.44h3.957a1.79 1.79 0 0 0 1.575-1.689v-5.678c0-.753-.614-1.363-1.37-1.363s-1.37.61-1.37 1.363v3.605a1.027 1.027 0 0 1-1.024 1.018H9.281a1.37 1.37 0 0 0-1.371 1.365v.019a1.376 1.376 0 0 0 1.39 1.36m-2.372-4.163a1.445 1.445 0 0 1-1.448-1.441V7.158A1.88 1.88 0 0 1 7.129 5.39h3.966a1.467 1.467 0 0 1 1.468 1.437 1.44 1.44 0 0 1-.418 1.031 1.46 1.46 0 0 1-1.031.432H9.318a.94.94 0 0 0-.945.94v3.605c0 .794-.646 1.44-1.445 1.44z" fill="#fff" style="fill:#4d0094;fill-opacity:1;stroke-width:.77892"/><path d="M11.094 5.472H7.138A1.79 1.79 0 0 0 5.563 7.16v5.679a1.36 1.36 0 0 0 .665 1.234 1.38 1.38 0 0 0 1.408 0 1.36 1.36 0 0 0 .665-1.234V9.23c-.001-.27.106-.53.299-.72a1.02 1.02 0 0 1 .724-.296h1.79a1.37 1.37 0 0 0 1.37-1.361v-.02a1.39 1.39 0 0 0-1.39-1.362" fill="#fff" style="fill:#4d0094;fill-opacity:1;stroke-width:.77892"/><path d="M11.719 2.91a5.72 5.72 0 0 1 4.045 1.667 5.66 5.66 0 0 1 1.666 4.027v10.923a1.78 1.78 0 0 1-1.512 1.45H8.614a5.73 5.73 0 0 1-4.04-1.662 5.66 5.66 0 0 1-1.67-4.017V4.676a1.777 1.777 0 0 1 1.757-1.779zM11.744 0H4.552C2.037.005.002 2.033 0 4.532v10.82a8.5 8.5 0 0 0 2.516 6.039 8.6 8.6 0 0 0 6.078 2.495h7.604a4.515 4.515 0 0 0 4.136-4.006V8.52a8.5 8.5 0 0 0-2.52-6.03A8.6 8.6 0 0 0 11.744 0" fill="#fff" style="fill:#4d0094;fill-opacity:1;stroke-width:.77892"/></svg>
