<svg viewBox="0 0 512.993 460.807" xml:space="preserve" width="512.993" height="460.807" xmlns="http://www.w3.org/2000/svg"><g transform="translate(6.496 -19.595)"/><path style="fill:#fb2d26" d="M466.598 378.105c10.168 17.658 11.153 36.226 2.703 50.903-8.438 14.69-24.946 23.102-45.295 23.102h-38.348c.455-7.149.758-14.362.758-21.624 0-8.134-.379-16.168-.935-24.176l25.224-.025c6.202 0 11.216-5.04 11.216-11.254 0-1.945-.493-3.751-1.352-5.368L259.802 110.224a11.16 11.16 0 0 0-9.739-5.697c-4.067 0-7.629 2.173-9.6 5.431l-25.527 44.373c77.58 58.482 129.734 149.085 136.871 251.953.556 7.996.935 16.029.935 24.176 0 7.263-.303 14.463-.745 21.624H226.759c.682-7.124 1.074-14.324 1.074-21.624 0-8.172-.48-16.231-1.364-24.176-6.189-56.613-33.902-106.783-74.713-142.188l-17.583 30.542c30.833 28.698 51.876 67.778 57.598 111.646 1.036 7.92 1.617 15.978 1.617 24.176 0 7.301-.48 14.526-1.301 21.624H75.994c-20.349 0-36.858-8.425-45.295-23.115-8.45-14.677-7.465-33.232 2.703-50.903l23.835-40.849c13.667 7.339 25.944 16.9 36.415 28.218l-14.21 24.201a11.5 11.5 0 0 0-1.352 5.368c0 6.215 5.015 11.242 11.216 11.242l56.309.025c-4.724-26.993-17.178-51.345-35.013-70.633-10.509-11.33-22.787-20.917-36.453-28.256l62.878-109.246a266 266 0 0 1 37.906 25.704c54.187 43.969 90.78 108.905 97.411 182.418h33.7c-6.871-85.942-50.057-161.729-114.147-211.899a301 301 0 0 0-38.095-25.414l53.67-93.243c10.155-17.671 25.692-27.814 42.592-27.814 16.888 0 32.411 10.143 42.579 27.814z" transform="translate(-28.5 -54.592)scale(1.13999)"/></svg>
