<svg width="84.471" height="65" viewBox="0 0 84.471 65" fill="none" xmlns="http://www.w3.org/2000/svg"><path fill-rule="evenodd" clip-rule="evenodd" d="M22.337 51.5a.287.287 0 0 0-.238-.448H5.275A5.27 5.27 0 0 1 0 45.772l.02-24.49a5.93 5.93 0 0 1 .788-2.95L9.795 2.669A5.31 5.31 0 0 1 14.403 0h54.535a3.159 3.159 0 0 1 2.676 4.83l-5.865 9.377a.927.927 0 0 0 .786 1.418h13.287a4.65 4.65 0 0 1 4.649 4.649v23.495c0 2.626-.665 5.21-1.934 7.508-1.598 2.896-4.191 7-5.827 9.963A7.27 7.27 0 0 1 70.341 65H19.158a3.168 3.168 0 0 1-2.622-4.947z" fill="#e27152"/><path fill-rule="evenodd" clip-rule="evenodd" d="M30.225 49.035a3.29 3.29 0 0 0-2.69 1.396l-6.928 9.827a.951.951 0 0 0 .777 1.498h47.774c1.76 0 3.384-.94 4.261-2.466 1.249-2.172 3.394-5.33 4.68-7.567a1.792 1.792 0 0 0-1.555-2.688zM16.754 35.354a5.87 5.87 0 0 0-4.605 2.254l-5.654 7.233a1.834 1.834 0 0 0 1.447 2.965h16.513a3.53 3.53 0 0 1 3.185-2.015h31.915a3.75 3.75 0 0 0 3.199-1.793l4.341-7.09a1.132 1.132 0 0 0-.97-1.725z" fill="#fffbf9"/><path fill-rule="evenodd" clip-rule="evenodd" d="M67.477 43.153a1.726 1.726 0 0 0 1.465 2.638h9.26a2.696 2.696 0 0 0 2.695-2.694V21.51a2.64 2.64 0 0 0-2.64-2.64H35.055c-1.62 0-3.128.827-3.997 2.194-1.533 2.412-3.317 6.256-4.826 8.63a1.37 1.37 0 0 0 1.156 2.104h41.02a3.409 3.409 0 0 1 2.893 5.208z" fill="#fffbf9"/><path fill-rule="evenodd" clip-rule="evenodd" d="M59.933 15.625c.355 0 .686-.18.88-.476l6.136-9.398a1.194 1.194 0 0 0-1-1.847H19.216a5.03 5.03 0 0 0-5.033 5.034v17.8a5.126 5.126 0 0 0 5.37 5.12h.659c.017-.142 5.327-9.309 8.258-13.804a5.36 5.36 0 0 1 4.486-2.429z" fill="#fffbf9"/></svg>
