<svg fill="none" height="20" viewBox="0 0 16.053 16.667" width="16.053" xmlns="http://www.w3.org/2000/svg"><path d="M.62 16.763 0 .254A1.006 1.006 0 0 1 .944-.787l14.041-.878A1.005 1.005 0 0 1 16.053-.66v17.989a1.006 1.006 0 0 1-1.051 1.004L1.58 17.73a1.006 1.006 0 0 1-.96-.967" fill="#ff4785"/><path clip-rule="evenodd" d="m13.88-1.596-1.932.121-.094 2.267a.15.15 0 0 0 .24.125l.88-.667.744.585a.15.15 0 0 0 .243-.123zm-1.504 7.59c-.353.275-2.989.463-2.989.071.056-1.492-.612-1.558-.984-1.558-.352 0-.946.107-.946.907 0 .814.868 1.275 1.887 1.815 1.447.767 3.2 1.695 3.2 4.031 0 2.24-1.82 3.476-4.14 3.476-2.395 0-4.488-.968-4.252-4.328.093-.394 3.138-.3 3.138 0-.038 1.387.278 1.794 1.076 1.794.613 0 .891-.337.891-.906 0-.86-.904-1.369-1.945-1.953-1.409-.791-3.067-1.722-3.067-3.858 0-2.133 1.467-3.555 4.084-3.555 2.618 0 4.047 1.4 4.047 4.064" fill="#fff" fill-rule="evenodd"/></svg>
